<svg xmlns="http://www.w3.org/2000/svg" viewBox="0 0 1440 320"><path fill="rgba(173,55,184,0.171)" fill-opacity="1" d="M0,192L9.6,176C19.2,160,38,128,58,112C76.8,96,96,96,115,101.3C134.4,107,154,117,173,144C192,171,211,213,230,240C249.6,267,269,277,288,245.3C307.2,213,326,139,346,106.7C364.8,75,384,85,403,101.3C422.4,117,442,139,461,149.3C480,160,499,160,518,154.7C537.6,149,557,139,576,138.7C595.2,139,614,149,634,144C652.8,139,672,117,691,122.7C710.4,128,730,160,749,149.3C768,139,787,85,806,69.3C825.6,53,845,75,864,85.3C883.2,96,902,96,922,106.7C940.8,117,960,139,979,154.7C998.4,171,1018,181,1037,192C1056,203,1075,213,1094,186.7C1113.6,160,1133,96,1152,64C1171.2,32,1190,32,1210,48C1228.8,64,1248,96,1267,96C1286.4,96,1306,64,1325,80C1344,96,1363,160,1382,197.3C1401.6,235,1421,245,1430,250.7L1440,256L1440,0L1430.4,0C1420.8,0,1402,0,1382,0C1363.2,0,1344,0,1325,0C1305.6,0,1286,0,1267,0C1248,0,1229,0,1210,0C1190.4,0,1171,0,1152,0C1132.8,0,1114,0,1094,0C1075.2,0,1056,0,1037,0C1017.6,0,998,0,979,0C960,0,941,0,922,0C902.4,0,883,0,864,0C844.8,0,826,0,806,0C787.2,0,768,0,749,0C729.6,0,710,0,691,0C672,0,653,0,634,0C614.4,0,595,0,576,0C556.8,0,538,0,518,0C499.2,0,480,0,461,0C441.6,0,422,0,403,0C384,0,365,0,346,0C326.4,0,307,0,288,0C268.8,0,250,0,230,0C211.2,0,192,0,173,0C153.6,0,134,0,115,0C96,0,77,0,58,0C38.4,0,19,0,10,0L0,0Z"></path></svg>