<svg xmlns="http://www.w3.org/2000/svg" viewBox="0 0 1440 320"><path fill="#15171b" fill-opacity="1" d="M0,64L30,101.3C60,139,120,213,180,218.7C240,224,300,160,360,138.7C420,117,480,139,540,133.3C600,128,660,96,720,85.3C780,75,840,85,900,74.7C960,64,1020,32,1080,42.7C1140,53,1200,107,1260,117.3C1320,128,1380,96,1410,80L1440,64L1440,320L1410,320C1380,320,1320,320,1260,320C1200,320,1140,320,1080,320C1020,320,960,320,900,320C840,320,780,320,720,320C660,320,600,320,540,320C480,320,420,320,360,320C300,320,240,320,180,320C120,320,60,320,30,320L0,320Z"></path></svg>